HIERARCHY
ROOT Hips
{
	OFFSET 0.000000 0.000000 0.000000
	CHANNELS 6 Xposition Yposition Zposition Zrotation Yrotation Xrotation 
	JOINT LHipJoint
	{
		OFFSET 0.000000 0.000000 0.000000
		CHANNELS 3 Zrotation Yrotation Xrotation
		JOINT LeftUpLeg
		{
			OFFSET 1.363060 -1.794630 0.839290
			CHANNELS 3 Zrotation Yrotation Xrotation
			JOINT LeftLeg
			{
				OFFSET 2.448110 -6.726130 0.000000
				CHANNELS 3 Zrotation Yrotation Xrotation
				JOINT LeftFoot
				{
					OFFSET 2.562200 -7.039590 0.000000
					CHANNELS 3 Zrotation Yrotation Xrotation
					JOINT LeftToeBase
					{
						OFFSET 0.157640 -0.433110 2.322550
						CHANNELS 3 Zrotation Yrotation Xrotation
						End Site
						{
							OFFSET 0.000000 0.000000 0.000000
						}
					}
				}
			}
		}
	}
	JOINT RHipJoint
	{
		OFFSET 0.000000 0.000000 0.000000
		CHANNELS 3 Zrotation Yrotation Xrotation
		JOINT RightUpLeg
		{
			OFFSET -1.305520 -1.794630 0.839290
			CHANNELS 3 Zrotation Yrotation Xrotation
			JOINT RightLeg
			{
				OFFSET -2.542530 -6.985550 0.000000
				CHANNELS 3 Zrotation Yrotation Xrotation
				JOINT RightFoot
				{
					OFFSET -2.568260 -7.056230 0.000000
					CHANNELS 3 Zrotation Yrotation Xrotation
					JOINT RightToeBase
					{
						OFFSET -0.164730 -0.452590 2.363150
						CHANNELS 3 Zrotation Yrotation Xrotation
						End Site
						{
							OFFSET 0.000000 0.000000 0.000000
						}
					}
				}
			}
		}
	}
	JOINT LowerBack
	{
		OFFSET 0.000000 0.000000 0.000000
		CHANNELS 3 Zrotation Yrotation Xrotation
		JOINT Spine
		{
			OFFSET 0.028270 2.035590 -0.193380
			CHANNELS 3 Zrotation Yrotation Xrotation
			JOINT Spine1
			{
				OFFSET 0.056720 2.048850 -0.042750
				CHANNELS 3 Zrotation Yrotation Xrotation
				JOINT Neck
				{
					OFFSET 0.000000 0.000000 0.000000
					CHANNELS 3 Zrotation Yrotation Xrotation
					JOINT Neck1
					{
						OFFSET -0.054170 1.746240 0.172020
						CHANNELS 3 Zrotation Yrotation Xrotation
						JOINT Head
						{
							OFFSET 0.104070 1.761360 -0.123970
							CHANNELS 3 Zrotation Yrotation Xrotation
							End Site
							{
								OFFSET 0.000000 0.000000 0.000000
							}
						}
					}
				}
				JOINT LeftShoulder
				{
					OFFSET 0.000000 0.000000 0.000000
					CHANNELS 3 Zrotation Yrotation Xrotation
					JOINT LeftArm
					{
						OFFSET 3.362410 1.200890 -0.311210
						CHANNELS 3 Zrotation Yrotation Xrotation
						JOINT LeftForeArm
						{
							OFFSET 4.983000 -0.000000 -0.000000
							CHANNELS 3 Zrotation Yrotation Xrotation
							JOINT LeftHand
							{
								OFFSET 3.483560 -0.000000 -0.000000
								CHANNELS 3 Zrotation Yrotation Xrotation
								JOINT LeftFingerBase
								{
									OFFSET 0.000000 0.000000 0.000000
									CHANNELS 3 Zrotation Yrotation Xrotation
									JOINT LeftHandIndex1
									{
										OFFSET 0.715260 -0.000000 -0.000000
										CHANNELS 3 Zrotation Yrotation Xrotation
										End Site
										{
											OFFSET 0.000000 0.000000 0.000000
										}
									}
								}
								JOINT LThumb
								{
									OFFSET 0.000000 0.000000 0.000000
									CHANNELS 3 Zrotation Yrotation Xrotation
									End Site
									{
										OFFSET 0.000000 0.000000 0.000000
									}
								}
							}
						}
					}
				}
				JOINT RightShoulder
				{
					OFFSET 0.000000 0.000000 0.000000
					CHANNELS 3 Zrotation Yrotation Xrotation
					JOINT RightArm
					{
						OFFSET -3.136600 1.374050 -0.404650
						CHANNELS 3 Zrotation Yrotation Xrotation
						JOINT RightForeArm
						{
							OFFSET -5.241900 -0.000000 -0.000000
							CHANNELS 3 Zrotation Yrotation Xrotation
							JOINT RightHand
							{
								OFFSET -3.444170 -0.000000 -0.000000
								CHANNELS 3 Zrotation Yrotation Xrotation
								JOINT RightFingerBase
								{
									OFFSET 0.000000 0.000000 0.000000
									CHANNELS 3 Zrotation Yrotation Xrotation
									JOINT RightHandIndex1
									{
										OFFSET -0.622530 -0.000000 -0.000000
										CHANNELS 3 Zrotation Yrotation Xrotation
										End Site
										{
											OFFSET 0.000000 0.000000 0.000000
										}
									}
								}
								JOINT RThumb
								{
									OFFSET 0.000000 0.000000 0.000000
									CHANNELS 3 Zrotation Yrotation Xrotation
									End Site
									{
										OFFSET 0.000000 0.000000 0.000000
									}
								}
							}
						}
					}
				}
			}
		}
	}
}
MOTION
Frames: 6
Frame Time: 0.008333
3.273370 16.959778 1.133696 14.918605 -59.495648 15.420193 -9.618829 -0.958668 2.653179 -14.828989 -11.848867 -45.406012 -2.372861 0.298409 23.390442 0.960867 5.304489 -1.086010 1.073200 -0.000000 -39.837300 8.420106 1.511955 -5.871911 9.054672 -33.780275 -45.491961 4.532419 -3.241279 27.203332 -2.260460 -9.812179 -4.258030 -1.317900 -0.000000 -68.654800 3.662844 2.064386 5.011393 2.393732 2.129274 -2.084187 6.254688 2.017833 -0.584207 -12.277719 -13.100414 -11.456126 3.780756 0.421023 -1.524213 0.000000 0.000000 0.000000 16.912523 1.404602 -2.415838 -77.601362 10.373200 3.856604 174.878724 -49.059620 179.921909 6.037720 -1.412098 -0.104616 0.298502 0.638268 0.000000 0.000000 0.000000 0.000000 0.000000 0.000000 0.000000 -37.025264 -1.771505 5.850424 -32.070670 35.190771 -158.896191 -4.358589 3.971670 -0.107950 -18.054081 20.595864 -3.577425 0.531519 -1.024782 -0.000000 0.000000 0.000000 0.000000 0.000000 0.000000 0.000000 
3.282152 16.959865 1.145641 14.768653 -59.572211 15.703822 -9.623198 -0.970817 2.650298 -14.731515 -11.911322 -45.570048 -2.360308 0.296613 23.368395 0.975117 5.365894 -1.103767 1.082000 -0.000000 -39.771400 8.395067 1.516242 -5.889054 9.191235 -33.661446 -45.607040 4.539496 -3.227603 27.103020 -2.263580 -9.839930 -4.158096 -1.343800 0.000000 -68.644100 3.715417 2.033985 5.056962 2.353061 2.097563 -2.065297 6.046668 1.983101 -0.488238 -11.767959 -13.420854 -11.380086 3.669548 0.409594 -1.498303 0.000000 0.000000 0.000000 17.207363 1.525597 -2.406042 -78.190103 10.554880 3.743440 174.784086 -48.942560 179.919896 6.124541 -1.530683 -0.112360 0.301744 0.640737 0.000000 0.000000 0.000000 0.000000 0.000000 0.000000 0.000000 -36.120577 -2.199489 5.875612 -33.784531 35.005916 -158.714930 -4.366736 4.090831 -0.107871 -17.681290 20.857260 -3.548829 0.520531 -1.040839 -0.000000 0.000000 0.000000 0.000000 0.000000 0.000000 0.000000 
3.292819 16.959369 1.157136 14.605512 -59.686294 15.987655 -9.627727 -0.989087 2.636033 -14.621243 -11.965770 -45.741494 -2.341600 0.296980 23.385975 0.997087 5.465136 -1.145958 1.092900 -0.000000 -39.704000 8.371079 1.521879 -5.907820 9.314144 -33.501757 -45.714806 4.542306 -3.216526 27.027117 -2.268617 -9.874760 -4.067107 -1.369001 -0.000000 -68.624900 3.754573 2.005347 5.124205 2.299696 2.067281 -2.046990 5.787478 1.952178 -0.424255 -11.208552 -13.593508 -11.275031 3.516634 0.393686 -1.461434 0.000000 0.000000 0.000000 17.559946 1.588184 -2.398027 -78.759220 10.707811 3.678895 174.704476 -48.841004 179.918024 6.215215 -1.640462 -0.119799 0.303632 0.642214 0.000000 0.000000 0.000000 0.000000 0.000000 0.000000 0.000000 -35.057545 -2.500335 5.871730 -35.404096 34.823347 -157.322231 -4.358657 4.241929 -0.107944 -17.293469 20.849025 -3.470457 0.510153 -1.049162 -0.000000 0.000000 0.000000 0.000000 0.000000 0.000000 0.000000 
3.304741 16.958328 1.168020 14.437906 -59.838558 16.267453 -9.632660 -1.012015 2.610392 -14.503719 -12.006765 -45.919959 -2.318324 0.299814 23.439934 1.025470 5.594873 -1.209710 1.105300 -0.000000 -39.637200 8.347895 1.529301 -5.928265 9.425059 -33.309153 -45.818750 4.542102 -3.208120 26.973920 -2.273653 -9.907457 -3.984377 -1.392600 0.000000 -68.601200 3.785949 1.976828 5.211578 2.242002 2.036698 -2.029041 5.506059 1.922838 -0.392014 -10.648294 -13.660755 -11.132007 3.342075 0.374907 -1.412335 0.000000 0.000000 0.000000 17.911215 1.599555 -2.390207 -79.272245 10.828631 3.662459 174.649720 -48.760295 179.916390 6.309614 -1.732050 -0.126625 0.303531 0.642691 0.000000 0.000000 0.000000 0.000000 0.000000 0.000000 0.000000 -33.950528 -2.704587 5.820655 -36.815991 34.748237 -154.940615 -4.320441 4.555310 -0.108384 -16.849916 20.597731 -3.341499 0.498321 -1.051482 -0.000000 0.000000 0.000000 0.000000 0.000000 0.000000 0.000000 
3.317779 16.956493 1.178206 14.266575 -60.023592 16.541095 -9.636700 -1.038985 2.574052 -14.385277 -12.029988 -46.107239 -2.291943 0.305316 23.534144 1.058639 5.745654 -1.296108 1.117400 0.000000 -39.572001 8.326708 1.537154 -5.948973 9.526944 -33.094382 -45.927598 4.540646 -3.204208 26.949470 -2.276706 -9.927251 -3.914485 -1.412000 -0.000000 -68.574300 3.797534 1.950540 5.317176 2.178090 2.008266 -2.014316 5.200497 1.898423 -0.407013 -10.082868 -13.583491 -10.938541 3.144190 0.352847 -1.347455 0.000000 0.000000 0.000000 18.291750 1.542708 -2.377471 -79.740955 10.921200 3.695513 174.618903 -48.705042 179.915044 6.396790 -1.810154 -0.132639 0.301995 0.642559 0.000000 0.000000 0.000000 0.000000 0.000000 0.000000 0.000000 -32.810535 -2.768954 5.691646 -37.817455 34.840383 -150.716646 -4.236050 5.225214 -0.110611 -16.731256 19.747678 -3.183853 0.501688 -1.038267 -0.000000 0.000000 0.000000 0.000000 0.000000 0.000000 0.000000 
3.331747 16.953721 1.187621 14.093173 -60.237945 16.806084 -9.639478 -1.069152 2.527532 -14.271765 -12.030625 -46.304665 -2.263909 0.313984 23.671034 1.094947 5.907623 -1.405685 1.127700 -0.000000 -39.509900 8.307730 1.544773 -5.969418 9.622533 -32.867346 -46.046968 4.539337 -3.206021 26.958178 -2.276046 -9.925270 -3.860576 -1.425200 0.000000 -68.546500 3.787329 1.927362 5.438807 2.114594 1.983085 -2.004533 4.895694 1.880108 -0.480207 -9.552398 -13.350778 -10.676120 2.940456 0.328655 -1.262453 0.000000 0.000000 0.000000 18.674664 1.410836 -2.353567 -80.153614 10.984664 3.777778 174.616820 -48.682787 179.914019 6.473147 -1.870981 -0.137537 0.298918 0.642213 0.000000 0.000000 0.000000 0.000000 0.000000 0.000000 0.000000 -31.764347 -2.666209 5.444810 -38.062083 35.164622 -144.159973 -4.067915 6.528552 -0.116469 -17.125818 18.030055 -2.981913 0.527990 -1.002144 -0.000000 0.000000 0.000000 0.000000 0.000000 0.000000 0.000000 
